<svg xmlns="http://www.w3.org/2000/svg" viewBox="0 0 24 24" width="24" height="24">
  <circle cx="12" cy="12" r="11" fill="#1890ff" />
  <path d="M7 10c0-2.21 1.79-4 4-4s4 1.79 4 4v1h1v2h-1v3c0 1.1-.9 2-2 2h-4c-1.1 0-2-.9-2-2v-3H6v-2h1v-1z" fill="white" />
  <path d="M12 4c-3.31 0-6 2.69-6 6v1H5v4h1v1c0 2.21 1.79 4 4 4h4c2.21 0 4-1.79 4-4v-1h1v-4h-1v-1c0-3.31-2.69-6-6-6zm4 7v1h1v2h-1v1c0 1.1-.9 2-2 2h-4c-1.1 0-2-.9-2-2v-1H7v-2h1v-1c0-2.21 1.79-4 4-4s4 1.79 4 4z" fill="#fff" opacity="0.3" />
</svg> 